<svg xmlns="http://www.w3.org/2000/svg" viewBox="0 0 200 200" width="200" height="200">
  <defs>
    <linearGradient id="v3MarkChevronL" x1="0%" y1="0%" x2="100%" y2="100%">
      <stop offset="0%" stop-color="#38BDF8"/>
      <stop offset="100%" stop-color="#2563EB"/>
    </linearGradient>
    <linearGradient id="v3MarkChevronR" x1="0%" y1="0%" x2="100%" y2="100%">
      <stop offset="0%" stop-color="#60A5FA"/>
      <stop offset="100%" stop-color="#1D4ED8"/>
    </linearGradient>
    <linearGradient id="v3MarkApex" x1="0%" y1="0%" x2="0%" y2="100%">
      <stop offset="0%" stop-color="#34D399"/>
      <stop offset="50%" stop-color="#10B981"/>
      <stop offset="100%" stop-color="#047857"/>
    </linearGradient>
    <linearGradient id="v3MarkGold" x1="0%" y1="0%" x2="100%" y2="100%">
      <stop offset="0%" stop-color="#FCD34D"/>
      <stop offset="100%" stop-color="#F59E0B"/>
    </linearGradient>
  </defs>

  <g transform="translate(100, 100)">
    <path d="M-72,-65 L-40,-65 L-12,32 C-7,48 -20,62 -36,62 L-54,62 C-70,62 -78,48 -82,32 Z" fill="url(#v3MarkChevronL)"/>
    <path d="M72,-65 L40,-65 L12,32 C7,48 20,62 36,62 L54,62 C70,62 78,48 82,32 Z" fill="url(#v3MarkChevronR)"/>

    <polygon points="0,-72 24,-16 10,-16 18,36 0,68 -18,36 -10,-16 -24,-16" fill="url(#v3MarkApex)"/>
    <polygon points="0,-52 12,-16 0,22 -12,-16" fill="#FFFFFF" opacity="0.95"/>

    <polygon points="-24,42 -4,64 -18,64" fill="url(#v3MarkGold)"/>
    <polygon points="24,42 4,64 18,64" fill="url(#v3MarkGold)"/>
  </g>
</svg>
